{"title":"Septembers Of Shiraz 2015 Movies HDRip XviD ESubs AAC New ☻rDX☻","uid":15077893,"size":739107973,"categoryP":"video","categoryS":"movies","magnet":"?xt=urn:btih:9bc1d4245bdadb67defdf5fb8e3743432e21df59&amp;dn=Septembers+Of+Shiraz+2015+Movies+HDRip+XviD+ESubs+AAC+New+%E2%98%BBrDX%E2%98%BB&amp;tr=udp%3A%2F%2Ftracker.leechers-paradise.org%3A6969&amp;tr=udp%3A%2F%2Fzer0day.ch%3A1337&amp;tr=udp%3A%2F%2Fopen.demonii.com%3A1337&amp;tr=udp%3A%2F%2Ftracker.coppersurfer.tk%3A6969&amp;tr=udp%3A%2F%2Fexodus.desync.com%3A6969","seeders":1,"leechers":0,"uploader":"basicssom","files":3,"time":1466845466,"description":"----------------------------------------------------------------\r\nSeptembers Of Shiraz 2015 English Movies HDRip XviD ESubs AAC New Source with Sample ☻rDX☻\r\n\r\nSCREEN SHOTS &amp; POSTER:\r\n  \nhttp://mobileshosting.com/2016/6/earning/index.htm  \nhttp://mobileshosting.com/2016/6/earning/1.html  \nhttp://mobileshosting.com/2016/6/earning/2.html  \nhttp://mobileshosting.com/2016/6/earning/3.html  \nhttp://mobileshosting.com/2016/6/earning/4.html  \nhttp://mobileshosting.com/2016/6/earning/5.html  \nhttp://mobileshosting.com/2016/6/earning/6.html  \nhttp://mobileshosting.com/2016/6/earning/7.html  \nhttp://mobileshosting.com/2016/6/earning/8.html  \nhttp://mobileshosting.com/2016/6/earning/9.html  \nhttp://mobileshosting.com/2016/6/earning/10.html\r\n\r\nFormat                                   : Matroska\r\nFormat version                           : Version 4 / Version 2\r\nFile size                                : 693 MiB\r\nDuration                                 : 1h 50mn\r\nOverall bit rate                         : 879 Kbps\r\nMovie name                               : Septembers Of Shiraz 2015 English Movies HDRip XviD ESubs AAC New Source ☻rDX☻\r\n\r\nVideo\r\nID                                       : 1\r\nFormat                                   : MPEG-4 Visual\r\nFormat profile                           : Advanced   \r\nFormat settings, BVOP                    : Yes\r\nFormat settings, QPel                    : No\r\nFormat settings, GMC                     : No warppoints\r\nFormat settings, Matrix                  : Default (H.263)\r\nCodec ID                                 : V_MS/VFW/FOURCC / XVID\r\nCodec ID/Hint                            : XviD\r\nDuration                                 : 1h 50mn\r\nBit rate                                 : 750 Kbps\r\nWidth                                    : 640 pixels\r\nHeight                                   : 344 pixels\r\nDisplay aspect ratio                     : 1.85:1\r\nFrame rate mode                          : Constant\r\nFrame rate                               : 23.976 fps\r\nColor space                              : YUV\r\nChroma subsampling                       : 4:2:0\r\nBit depth                                : 8 bits\r\nScan type                                : Progressive\r\nCompression mode                         : Lossy\r\nBits/(Pixel*Frame)                       : 0.142\r\nStream size                              : 591 MiB (85%)\r\nTitle                                    : ☻rDX☻\r\nWriting library                          : XviD 65\r\nDefault                                  : Yes\r\nForced                                   : No\r\n\r\nAudio\r\nID                                       : 2\r\nFormat                                   : MPEG Audio\r\nFormat version                           : Version 1\r\nFormat profile                           : Layer 3\r\nMode                                     : Joint stereo\r\nMode extension                           : MS Stereo\r\nCodec ID                                 : A_MPEG/L3\r\nCodec ID/Hint                            : MP3\r\nDuration                                 : 1h 50mn\r\nBit rate mode                            : Constant\r\nBit rate                                 : 112 Kbps\r\nChannel(s)                               : 2 channels\r\nSampling rate                            : 48.0 KHz\r\nCompression mode                         : Lossy\r\nStream size                              : 88.3 MiB (13%)\r\nTitle                                    : ☻rDX☻\r\nWriting library                          : LAME3.99r\r\nEncoding settings                        : -m j -V 4 -q 3 -lowpass 15.6 -b 112\r\nDefault                                  : Yes\r\nForced                                   : No\r\n\r\nIMDB \nhttp://www.imdb.com/title/tt3661298/","torrent":{"xt":"urn:btih:9bc1d4245bdadb67defdf5fb8e3743432e21df59","amp;dn":"Septembers+Of+Shiraz+2015+Movies+HDRip+XviD+ESubs+AAC+New+%E2%98%BBrDX%E2%98%BB","amp;tr":["udp%3A%2F%2Ftracker.leechers-paradise.org%3A6969","udp%3A%2F%2Fzer0day.ch%3A1337","udp%3A%2F%2Fopen.demonii.com%3A1337","udp%3A%2F%2Ftracker.coppersurfer.tk%3A6969","udp%3A%2F%2Fexodus.desync.com%3A6969"],"infoHash":"9bc1d4245bdadb67defdf5fb8e3743432e21df59","infoHashBuffer":{"type":"Buffer","data":[155,193,212,36,91,218,219,103,222,253,245,251,142,55,67,67,46,33,223,89]},"announce":[],"urlList":[]}}